<svg version="1.2" xmlns="http://www.w3.org/2000/svg" viewBox="0 0 512 512" width="512" height="512"><style>.a{fill:#e63946}.b{fill:#edebea}</style><path fill-rule="evenodd" class="a" d="m256 509c-139.9 0-253-113.1-253-253 0-139.9 113.1-253 253-253 139.9 0 253 113.1 253 253 0 139.9-113.1 253-253 253z"/><path class="b" d="m286.1 256l49-48.9c4-4 6.2-9.4 6.2-15.1 0-5.7-2.2-11.1-6.2-15.1-4-4-9.4-6.2-15.1-6.2-5.7 0-11.1 2.2-15.1 6.2l-48.9 49-48.9-49c-4-4-9.4-6.2-15.1-6.2-5.7 0-11.1 2.2-15.1 6.2-4 4-6.2 9.4-6.2 15.1 0 5.7 2.2 11.1 6.2 15.1l49 48.9-49 48.9c-2 1.9-3.6 4.3-4.7 6.9-1.1 2.6-1.7 5.4-1.7 8.2 0 2.8 0.6 5.6 1.7 8.2 1.1 2.6 2.7 5 4.7 6.9 1.9 2 4.3 3.6 6.9 4.7 2.6 1.1 5.4 1.7 8.2 1.7 2.8 0 5.6-0.6 8.2-1.7 2.6-1.1 5-2.7 6.9-4.7l48.9-49 48.9 49c1.9 2 4.3 3.6 6.9 4.7 2.6 1.1 5.4 1.7 8.2 1.7 2.8 0 5.6-0.6 8.2-1.7 2.6-1.1 5-2.7 6.9-4.7 2-1.9 3.6-4.3 4.7-6.9 1.1-2.6 1.7-5.4 1.7-8.2 0-2.8-0.6-5.6-1.7-8.2-1.1-2.6-2.7-5-4.7-6.9z"/></svg>