<svg height="512" viewBox="0 0 48 48" width="512" xmlns="http://www.w3.org/2000/svg"><g id="Play"><path d="m13 41a4.722 4.722 0 0 1 -2.386-.653 4.528 4.528 0 0 1 -2.28-3.938v-24.821a4.528 4.528 0 0 1 2.28-3.938 4.685 4.685 0 0 1 4.711-.036l22 12.412a4.543 4.543 0 0 1 0 7.948l-22 12.412a4.731 4.731 0 0 1 -2.325.614zm0-32a2.715 2.715 0 0 0 -1.377.377 2.546 2.546 0 0 0 -1.289 2.211v24.824a2.546 2.546 0 0 0 1.289 2.211 2.707 2.707 0 0 0 2.72.021l22-12.412a2.542 2.542 0 0 0 0-4.464l-22-12.412a2.736 2.736 0 0 0 -1.343-.356z"/></g></svg>