<svg xmlns="http://www.w3.org/2000/svg" version="1.1" xmlns:xlink="http://www.w3.org/1999/xlink" width="512" height="512" x="0" y="0" viewBox="0 0 64 64" style="enable-background:new 0 0 512 512" xml:space="preserve"><g><path d="M55 18H9a2 2 0 0 1 0-4h46a2 2 0 0 1 0 4zM44.363 60H19.637a2 2 0 0 1 0-4h24.727a2 2 0 0 1-.001 4z" fill="#ffffff" opacity="1" data-original="#000000"></path><path d="M44.363 60a2 2 0 0 1 0-4 1.99 1.99 0 0 0 1.99-1.81 2.001 2.001 0 0 1 3.983.379A5.976 5.976 0 0 1 44.363 60z" fill="#ffffff" opacity="1" data-original="#000000"></path><path d="M48.347 56.379a2.001 2.001 0 0 1-1.993-2.19l3.655-38.379a2 2 0 1 1 3.983.379l-3.655 38.379a2.002 2.002 0 0 1-1.99 1.811zM19.637 60a5.976 5.976 0 0 1-5.973-5.431 2.001 2.001 0 0 1 3.983-.379 1.991 1.991 0 0 0 1.99 1.81 2 2 0 0 1 0 4z" fill="#ffffff" opacity="1" data-original="#000000"></path><path d="M15.653 56.379a2 2 0 0 1-1.989-1.811l-3.655-38.379a2.001 2.001 0 0 1 3.983-.379l3.655 38.379a2.001 2.001 0 0 1-1.994 2.19zM38 8H26a2 2 0 0 1 0-4h12a2 2 0 0 1 0 4z" fill="#ffffff" opacity="1" data-original="#000000"></path><path d="M42 12a2 2 0 0 1-2-2c0-1.103-.897-2-2-2a2 2 0 0 1 0-4c3.309 0 6 2.691 6 6a2 2 0 0 1-2 2z" fill="#ffffff" opacity="1" data-original="#000000"></path><path d="M42 18a2 2 0 0 1-2-2v-6a2 2 0 0 1 4 0v6a2 2 0 0 1-2 2zM22 12a2 2 0 0 1-2-2c0-3.309 2.691-6 6-6a2 2 0 0 1 0 4c-1.103 0-2 .897-2 2a2 2 0 0 1-2 2z" fill="#ffffff" opacity="1" data-original="#000000"></path><path d="M22 18a2 2 0 0 1-2-2v-6a2 2 0 0 1 4 0v6a2 2 0 0 1-2 2zM32 47.5a2 2 0 0 1-2-2v-17a2 2 0 0 1 4 0v17a2 2 0 0 1-2 2zM40.598 47.5c-.032 0-.064 0-.097-.002a2 2 0 0 1-1.903-2.093l.809-17c.052-1.104.993-1.98 2.093-1.902a2 2 0 0 1 1.903 2.093l-.809 17a2 2 0 0 1-1.996 1.904zM23.402 47.5a2 2 0 0 1-1.996-1.905l-.809-17a2 2 0 0 1 1.903-2.093c1.093-.078 2.04.798 2.093 1.902l.809 17a2 2 0 0 1-1.903 2.093c-.032.003-.064.003-.097.003z" fill="#ffffff" opacity="1" data-original="#000000"></path></g></svg>